<svg width="30" height="30" viewBox="0 0 30 30" fill="none" xmlns="http://www.w3.org/2000/svg">
<path d="M29.9053 7.08557C29.8321 6.99411 29.7247 6.93638 29.608 6.92581L5.81973 4.76673C5.8064 4.43928 5.67651 4.11567 5.42707 3.86623L2.89424 1.33334C2.63894 1.07804 2.29942 0.937347 1.9383 0.937347C1.57718 0.937347 1.23772 1.07804 0.982416 1.33334C0.727059 1.5887 0.586426 1.92821 0.586426 2.28933C0.586426 2.65045 0.727059 2.98991 0.982416 3.24527L3.51525 5.77805C3.77055 6.0334 4.11007 6.17404 4.47119 6.17404C4.60705 6.17404 4.73987 6.1541 4.86632 6.11567L8.46757 18.0406C8.76085 19.0117 9.63906 19.6566 10.6385 19.6566C10.6951 19.6566 10.7521 19.6545 10.8093 19.6504L27.0955 18.4586C27.9495 18.3962 28.6496 17.7346 28.7604 16.8855L29.9962 7.41067C30.0115 7.29445 29.9786 7.17708 29.9053 7.08557ZM4.81772 5.16869C4.72511 5.26124 4.60206 5.31226 4.47113 5.31226C4.34021 5.31226 4.21715 5.2613 4.12455 5.16869L1.59171 2.63586C1.49911 2.54331 1.44815 2.4202 1.44815 2.28933C1.44815 2.15847 1.49911 2.0353 1.59171 1.94269C1.68432 1.85014 1.80737 1.79913 1.9383 1.79913C2.06922 1.79913 2.19228 1.85014 2.28488 1.94269L4.81772 4.47552C5.00885 4.66665 5.00885 4.97762 4.81772 5.16869ZM15.4239 6.50368L15.6182 9.65597L11.5904 9.50925L10.9549 6.09809L15.4239 6.50368ZM5.61475 5.61334L10.0633 6.01715L10.7079 9.47714L6.73786 9.33248L5.61475 5.61334ZM8.23364 14.2853L7.00121 10.2044L10.8697 10.3453L11.5898 14.2108L8.23364 14.2853ZM10.7464 18.7909C10.0823 18.8393 9.48487 18.4284 9.29247 17.7914L8.49222 15.1415L11.7498 15.0691L12.4204 18.6684L10.7464 18.7909ZM11.7522 10.3775L15.6714 10.5202L15.893 14.1151L12.4628 14.1913L11.7522 10.3775ZM13.2851 18.6051L12.6226 15.0497L15.946 14.9758L16.1567 18.395L13.2851 18.6051ZM20.0637 18.1091L17.0162 18.3321L16.8082 14.9567L20.1496 14.8824L20.0637 18.1091ZM20.1725 14.02L16.7552 14.096L16.5367 10.5518L20.2612 10.6874L20.1725 14.02ZM20.2842 9.8259L16.4834 9.68746L16.2921 6.58249L20.3606 6.95177L20.2842 9.8259ZM24.2088 17.8058L20.9274 18.0459L21.0121 14.8633L24.4517 14.7868L24.2088 17.8058ZM24.5212 13.9234L21.0351 14.0008L21.1224 10.7188L24.7684 10.8516L24.5212 13.9234ZM24.8376 9.99182L21.1454 9.85733L21.2206 7.02984L25.0479 7.37723L24.8376 9.99182ZM27.9059 16.774C27.8479 17.2194 27.4806 17.5664 27.0327 17.5992L25.0784 17.7422L25.3178 14.7676L28.1759 14.7041L27.9059 16.774ZM28.2887 13.8396L25.3873 13.9042L25.6304 10.883L28.66 10.9934L28.2887 13.8396ZM28.7719 10.1351L25.6995 10.0232L25.9061 7.45508L29.0838 7.74352L28.7719 10.1351Z" fill="black"/>
<path d="M25.8552 26.3178V25.2853H26.8058C27.0438 25.2853 27.2367 25.0924 27.2367 24.8544C27.2367 24.6165 27.0438 24.4235 26.8058 24.4235H8.86114C8.69345 24.4235 8.54425 24.3432 8.45193 24.2032C8.35961 24.0632 8.34451 23.8945 8.41057 23.7403L9.62761 20.9005C9.72137 20.6818 9.62003 20.4285 9.40132 20.3348C9.18262 20.241 8.92933 20.3423 8.83557 20.5611L7.61853 23.4008C7.43901 23.8198 7.48163 24.297 7.73251 24.6776C7.98339 25.0581 8.40529 25.2853 8.86114 25.2853H9.33606V26.3178C8.54408 26.5117 7.95455 27.2271 7.95455 28.078C7.95455 29.0774 8.76755 29.8904 9.76692 29.8904C10.7663 29.8904 11.5793 29.0774 11.5793 28.078C11.5793 27.2271 10.9898 26.5117 10.1978 26.3178V25.2853H24.9935V26.3178C24.2015 26.5117 23.6119 27.2271 23.6119 28.078C23.6119 29.0774 24.4249 29.8904 25.4243 29.8904C26.4237 29.8904 27.2367 29.0774 27.2367 28.078C27.2367 27.2271 26.6472 26.5117 25.8552 26.3178ZM10.7176 28.0779C10.7176 28.6022 10.2911 29.0287 9.76692 29.0287C9.24271 29.0287 8.81627 28.6022 8.81627 28.0779C8.81627 27.5537 9.24271 27.1273 9.76692 27.1273C10.2911 27.1273 10.7176 27.5538 10.7176 28.0779ZM25.4243 29.0287C24.9001 29.0287 24.4737 28.6022 24.4737 28.0779C24.4737 27.5537 24.9001 27.1273 25.4243 27.1273C25.9485 27.1273 26.375 27.5538 26.375 28.0779C26.375 28.6022 25.9485 29.0287 25.4243 29.0287Z" fill="black"/>
</svg>
