<svg width="17" height="17" viewBox="0 0 17 17" fill="none" xmlns="http://www.w3.org/2000/svg">
<path d="M8.49986 0C3.80557 0 0 3.80568 0 8.49986C0 13.194 3.80557 17 8.49986 17C13.1941 17 17 13.194 17 8.49986C17 3.80568 13.1941 0 8.49986 0ZM12.1746 10.1165H8.57098C8.55879 10.1165 8.54746 10.1136 8.53539 10.1131C8.52332 10.1137 8.51204 10.1165 8.4998 10.1165C8.17515 10.1165 7.91193 9.85331 7.91193 9.52866V3.5275C7.91193 3.20285 8.17515 2.93963 8.4998 2.93963C8.82445 2.93963 9.08767 3.20285 9.08767 3.5275V8.94079H12.1744C12.499 8.94079 12.7622 9.20401 12.7622 9.52866C12.7622 9.85331 12.4992 10.1165 12.1746 10.1165Z" fill="#00B2A6"/>
</svg>
