<svg width="31" height="31" viewBox="0 0 31 31" fill="none" xmlns="http://www.w3.org/2000/svg">
<path d="M27.714 9.91998L24.49 4.40198C24.242 4.02998 23.808 3.78198 23.374 3.78198H1.674C1.116 3.78198 0.619995 4.27798 0.619995 4.83598V16.306C0.619995 16.926 1.116 17.36 1.674 17.36H23.374C23.808 17.36 24.242 17.112 24.49 16.74L27.714 11.222C27.962 10.85 27.962 10.354 27.714 9.91998ZM23.932 11.842C23.25 11.842 22.692 11.284 22.692 10.602C22.692 9.91998 23.25 9.36198 23.932 9.36198C24.614 9.36198 25.172 9.91998 25.172 10.602C25.172 11.284 24.614 11.842 23.932 11.842Z" fill="#00B2A6"/>
<path d="M17.9182 27.2179C17.7322 27.2179 17.4842 27.2179 17.2982 27.1559C16.4922 27.0319 15.7482 26.6599 15.2522 26.0399C14.4462 25.0479 14.1982 23.4359 14.6322 22.0099C15.0662 20.8319 15.9342 19.7779 17.1122 19.2199C17.9802 18.7859 19.0342 18.5379 20.3362 18.5379C20.8322 18.5379 21.3282 18.5379 21.8242 18.5379C22.3822 18.5379 22.8782 18.5999 23.3742 18.5379C24.6762 18.4759 25.9162 18.2279 27.1562 17.7939C27.7142 17.5459 28.3962 17.2979 28.7682 16.6779C29.2642 15.9339 29.3262 14.7559 28.8922 13.7639C28.5202 12.8959 27.8382 12.2139 26.9082 11.7799C26.0402 11.4079 25.0482 11.2839 24.1182 11.2219C23.8082 11.2219 23.4982 10.9119 23.5602 10.6019C23.5602 10.2919 23.8702 9.98187 24.1802 10.0439C25.2342 10.1059 26.3502 10.2299 27.4042 10.6639C28.5822 11.2219 29.5122 12.1519 30.0082 13.2679C30.5662 14.6319 30.5042 16.2439 29.7602 17.3599C29.2022 18.2279 28.2722 18.6619 27.5902 18.9099C26.2262 19.4059 24.8622 19.7159 23.4362 19.7159C22.8782 19.7159 22.3202 19.7159 21.7622 19.7159C21.2662 19.7159 20.8322 19.6539 20.3362 19.7159C19.2202 19.7159 18.3522 19.9019 17.6082 20.2739C16.7402 20.7079 16.0582 21.5139 15.7482 22.3819C15.4382 23.3739 15.5622 24.5519 16.1202 25.2339C16.4922 25.7299 17.0502 25.8539 17.4222 25.9159C18.6002 26.1019 19.8402 25.4819 20.6462 24.3659C20.8322 24.1179 21.2042 23.9939 21.5142 24.1799C21.8242 24.3659 21.8862 24.7379 21.7002 25.0479C20.7702 26.4119 19.3442 27.2179 17.9182 27.2179Z" fill="#00B2A6"/>
<path d="M4.83629 9.05211V10.2301H6.82029V10.9121H4.83629V12.7101H4.09229V8.30811H7.00629V8.99011H4.83629V9.05211Z" fill="#00B2A6"/>
<path d="M11.408 9.79612C11.408 10.5401 11.098 10.9741 10.478 11.1601L11.656 12.7721H10.726L9.67204 11.2841H8.68004V12.7721H7.93604V8.37012H9.54803C10.23 8.37012 10.726 8.49412 10.974 8.68012C11.284 8.92812 11.408 9.30012 11.408 9.79612ZM10.416 10.4161C10.54 10.2921 10.664 10.1061 10.664 9.79612C10.664 9.48612 10.602 9.30012 10.416 9.17612C10.23 9.05212 9.98204 8.99012 9.61004 8.99012H8.68004V10.5401H9.61004C9.98204 10.6021 10.292 10.5401 10.416 10.4161Z" fill="#00B2A6"/>
<path d="M15.5623 8.37012V9.05212H13.2063V10.2301H15.3143V10.9121H13.2063V12.0901H15.6243V12.7721H12.4623V8.37012H15.5623Z" fill="#00B2A6"/>
<path d="M19.7162 8.37012V9.05212H17.3602V10.2301H19.4682V10.9121H17.3602V12.0901H19.7782V12.7721H16.6161V8.37012H19.7162Z" fill="#00B2A6"/>
</svg>
