<svg width="62" height="19" viewBox="0 0 62 19" fill="none" xmlns="http://www.w3.org/2000/svg">
<path d="M6.624 18C6.464 18 6.328 17.952 6.216 17.856C6.12 17.744 6.072 17.608 6.072 17.448V4.008L2.088 7.08C1.976 7.176 1.856 7.224 1.728 7.224C1.584 7.224 1.448 7.144 1.32 6.984L0.696 6.192C0.616 6.08 0.576 5.968 0.576 5.856C0.576 5.664 0.656 5.512 0.816 5.4L6.048 1.368C6.224 1.256 6.432 1.2 6.672 1.2H7.896C8.056 1.2 8.184 1.256 8.28 1.368C8.392 1.464 8.448 1.592 8.448 1.752V17.448C8.448 17.608 8.392 17.744 8.28 17.856C8.184 17.952 8.056 18 7.896 18H6.624ZM19.0736 18.24C17.0096 18.24 15.4976 17.64 14.5376 16.44C13.5776 15.24 13.0656 13.664 13.0016 11.712C12.9856 11.28 12.9776 10.584 12.9776 9.624C12.9776 8.632 12.9856 7.912 13.0016 7.464C13.0496 5.544 13.5616 3.984 14.5376 2.784C15.5136 1.568 17.0256 0.959999 19.0736 0.959999C21.1376 0.959999 22.6576 1.568 23.6336 2.784C24.6096 3.984 25.1216 5.544 25.1696 7.464C25.2016 8.36 25.2176 9.08 25.2176 9.624C25.2176 10.152 25.2016 10.848 25.1696 11.712C25.1056 13.664 24.5936 15.24 23.6336 16.44C22.6736 17.64 21.1536 18.24 19.0736 18.24ZM19.0736 16.176C20.2736 16.176 21.1776 15.776 21.7856 14.976C22.4096 14.176 22.7376 13.048 22.7696 11.592C22.8016 10.664 22.8176 9.992 22.8176 9.576C22.8176 9.128 22.8016 8.472 22.7696 7.608C22.7376 6.168 22.4176 5.04 21.8096 4.224C21.2016 3.408 20.2896 3 19.0736 3C17.8736 3 16.9616 3.408 16.3376 4.224C15.7296 5.04 15.4096 6.168 15.3776 7.608L15.3536 9.576L15.3776 11.592C15.4096 13.048 15.7296 14.176 16.3376 14.976C16.9616 15.776 17.8736 16.176 19.0736 16.176ZM35.508 18.24C33.444 18.24 31.932 17.64 30.972 16.44C30.012 15.24 29.5 13.664 29.436 11.712C29.42 11.28 29.412 10.584 29.412 9.624C29.412 8.632 29.42 7.912 29.436 7.464C29.484 5.544 29.996 3.984 30.972 2.784C31.948 1.568 33.46 0.959999 35.508 0.959999C37.572 0.959999 39.092 1.568 40.068 2.784C41.044 3.984 41.556 5.544 41.604 7.464C41.636 8.36 41.652 9.08 41.652 9.624C41.652 10.152 41.636 10.848 41.604 11.712C41.54 13.664 41.028 15.24 40.068 16.44C39.108 17.64 37.588 18.24 35.508 18.24ZM35.508 16.176C36.708 16.176 37.612 15.776 38.22 14.976C38.844 14.176 39.172 13.048 39.204 11.592C39.236 10.664 39.252 9.992 39.252 9.576C39.252 9.128 39.236 8.472 39.204 7.608C39.172 6.168 38.852 5.04 38.244 4.224C37.636 3.408 36.724 3 35.508 3C34.308 3 33.396 3.408 32.772 4.224C32.164 5.04 31.844 6.168 31.812 7.608L31.788 9.576L31.812 11.592C31.844 13.048 32.164 14.176 32.772 14.976C33.396 15.776 34.308 16.176 35.508 16.176ZM48.9664 9.624C47.9264 9.624 47.1024 9.352 46.4944 8.808C45.9024 8.248 45.5744 7.48 45.5104 6.504C45.4944 6.232 45.4864 5.88 45.4864 5.448C45.4864 4.984 45.4944 4.608 45.5104 4.32C45.5584 3.328 45.8704 2.544 46.4464 1.968C47.0384 1.376 47.8784 1.08 48.9664 1.08C50.0544 1.08 50.8864 1.376 51.4624 1.968C52.0544 2.544 52.3744 3.328 52.4224 4.32C52.4544 4.96 52.4704 5.368 52.4704 5.544C52.4704 5.704 52.4544 6.024 52.4224 6.504C52.3744 7.48 52.0464 8.248 51.4384 8.808C50.8304 9.352 50.0064 9.624 48.9664 9.624ZM46.9504 18C46.8064 18 46.6864 17.96 46.5904 17.88C46.4944 17.784 46.4464 17.664 46.4464 17.52C46.4464 17.424 46.4784 17.336 46.5424 17.256L58.3984 1.656C58.5264 1.48 58.6384 1.36 58.7344 1.296C58.8464 1.232 58.9984 1.2 59.1904 1.2H59.9824C60.1424 1.2 60.2624 1.248 60.3424 1.344C60.4384 1.424 60.4864 1.536 60.4864 1.68C60.4864 1.776 60.4544 1.864 60.3904 1.944L48.5584 17.544C48.4304 17.72 48.3104 17.84 48.1984 17.904C48.1024 17.968 47.9504 18 47.7424 18H46.9504ZM48.9664 8.136C49.5424 8.136 49.9584 7.968 50.2144 7.632C50.4864 7.296 50.6464 6.888 50.6944 6.408C50.7264 5.832 50.7424 5.496 50.7424 5.4C50.7424 5.256 50.7264 4.928 50.6944 4.416C50.6624 3.92 50.5024 3.504 50.2144 3.168C49.9424 2.832 49.5264 2.664 48.9664 2.664C48.4064 2.664 47.9904 2.832 47.7184 3.168C47.4464 3.504 47.2944 3.92 47.2624 4.416C47.2464 4.672 47.2384 5 47.2384 5.4C47.2384 5.784 47.2464 6.12 47.2624 6.408C47.3104 6.904 47.4624 7.32 47.7184 7.656C47.9904 7.976 48.4064 8.136 48.9664 8.136ZM57.9424 18.144C56.9024 18.144 56.0784 17.856 55.4704 17.28C54.8784 16.688 54.5504 15.904 54.4864 14.928C54.4704 14.656 54.4624 14.304 54.4624 13.872C54.4624 13.408 54.4704 13.032 54.4864 12.744C54.5504 11.752 54.8704 10.968 55.4464 10.392C56.0384 9.8 56.8704 9.504 57.9424 9.504C59.0304 9.504 59.8624 9.8 60.4384 10.392C61.0304 10.968 61.3584 11.752 61.4224 12.744C61.4544 13.32 61.4704 13.696 61.4704 13.872C61.4704 14.032 61.4544 14.384 61.4224 14.928C61.3584 15.904 61.0224 16.688 60.4144 17.28C59.8064 17.856 58.9824 18.144 57.9424 18.144ZM57.9424 16.56C58.5184 16.56 58.9344 16.392 59.1904 16.056C59.4624 15.72 59.6224 15.312 59.6704 14.832C59.7024 14.256 59.7184 13.92 59.7184 13.824C59.7184 13.68 59.7024 13.352 59.6704 12.84C59.6384 12.344 59.4864 11.928 59.2144 11.592C58.9424 11.256 58.5184 11.088 57.9424 11.088C57.3824 11.088 56.9664 11.256 56.6944 11.592C56.4224 11.928 56.2704 12.344 56.2384 12.84C56.2224 13.096 56.2144 13.424 56.2144 13.824C56.2144 14.208 56.2224 14.544 56.2384 14.832C56.2864 15.312 56.4384 15.72 56.6944 16.056C56.9664 16.392 57.3824 16.56 57.9424 16.56Z" fill="#00B2A6"/>
</svg>
