<svg id="Layer_1" data-name="Layer 1" xmlns="http://www.w3.org/2000/svg" width="260.5mm" height="63.94mm" viewBox="0 0 738.44 181.26"><title>iwellness-logo</title><path d="M119.07,89.31,116,87q6.92-7.6,12.62-10.82t9.71-3.22a5.1,5.1,0,0,1,3.38,1,3.36,3.36,0,0,1,1.18,2.71q0,2-4.45,17.1-7.24,24.69-7.25,29.76a2.33,2.33,0,0,0,.49,1.5,1.35,1.35,0,0,0,1,.6q2.22,0,11.37-8.77l2.73,2.73q-9.51,9-13.9,11.53t-7.15,2.51a5.1,5.1,0,0,1-3.86-1.48,5.66,5.66,0,0,1-1.42-4.1q0-8.68,10.43-42.48a9.69,9.69,0,0,0,.49-2.85c0-1-.42-1.56-1.25-1.56A6.12,6.12,0,0,0,127,82.23Q125.18,83.34,119.07,89.31Zm27.47-45.84a4.75,4.75,0,0,1,3.53,1.42,4.94,4.94,0,0,1,1.38,3.61,7.63,7.63,0,0,1-2.11,5.34,6.32,6.32,0,0,1-4.74,2.31,4.6,4.6,0,0,1-3.47-1.45,5.24,5.24,0,0,1-1.38-3.79,7.49,7.49,0,0,1,2-5.27A6.32,6.32,0,0,1,146.54,43.47Z" transform="translate(0.3 -0.41)" style="fill:#F3590C"/><path d="M228.29,132.34h-1.58L216.53,86l-27.2,46.36h-1.58L175.22,75.18h8.14l8.52,39.05,22.8-39h7.72l8.69,39.05,22.55-39h8.06Z" transform="translate(0.3 -0.41)" style="fill:#F3590C"/><path d="M298.83,82.49h-24L271.71,99.6h23.17l-1.33,7.31H270.38l-3.2,17.62h24.75l-1.33,7.31H257.71L268,75.18h32.15Z" transform="translate(0.3 -0.41)" style="fill:#F3590C"/><path d="M308.63,124.53h25.58l-1.33,7.31H299.16l10.3-56.66h8.14Z" transform="translate(0.3 -0.41)" style="fill:#F3590C"/><path d="M349.33,124.53h25.59l-1.33,7.31H339.86l10.3-56.66h8.14Z" transform="translate(0.3 -0.41)" style="fill:#F3590C"/><path d="M433.06,131.84h-7L396.13,88.23l-7.93,43.61h-7.64l10.3-56.66h6.48L427.75,119l8-43.86h7.64Z" transform="translate(0.3 -0.41)" style="fill:#F3590C"/><path d="M486.64,82.49h-24L459.52,99.6H482.7l-1.33,7.31H458.19L455,124.53h24.76l-1.33,7.31h-32.9l10.3-56.66H488Z" transform="translate(0.3 -0.41)" style="fill:#F3590C"/><path d="M522,87.64c-4-4.57-8.39-5.89-12.21-5.89-5.24,0-9.47,2.73-10.2,6.73-2,10.88,22.56,10.71,19.28,28.74a18.91,18.91,0,0,1-18.66,15.36c-6.14,0-10.83-1.66-14.91-5.23l1.87-10.3c3.18,5.32,7.89,8.22,13.46,8.22,6.31,0,9.94-4,10.52-7.14,2.13-11.71-22.14-13-19.31-28.58,1.67-9.22,9.56-15.11,19.94-15.11a19.44,19.44,0,0,1,11.9,4Z" transform="translate(0.3 -0.41)" style="fill:#F3590C"/><path d="M588.34,127.6a6.27,6.27,0,0,1-5.89,5,4.05,4.05,0,0,1-4.08-5,6.27,6.27,0,0,1,5.89-5A4.05,4.05,0,0,1,588.34,127.6Z" transform="translate(0.3 -0.41)" style="fill:#F3590C"/><path d="M616.26,75.11,612,99.6h26.18l-1.33,7.31H610.62l-4.49,24.89-8.18,0,10.3-56.66" transform="translate(0.3 -0.41)" style="fill:#F3590C"/><path d="M702.13,109.57c-2.52,13.88-12.49,23-29.35,23-12,0-22.37-6.72-19.56-22.18l6.41-35.22h8.14l-6.09,33.48c-1.16,6.39-.82,9.06,1.29,11.63,2.65,3.24,6.43,4.82,11.33,4.82,6.23,0,11.08-2,14.13-4.57,3.43-2.91,4.85-7.06,5.82-12.38l6-33h8.14Z" transform="translate(0.3 -0.41)" style="fill:#F3590C"/><path d="M559.55,117.26c-5.21,38.53-129.26,65.28-283.22,64.38C126.49,180.77-1.34,141.25-.29,102.72V103C1.26,45.46,144.12,1.36,374.08.41c49.2-.2,206.33,9.48,364.05,44.93-5.71-1.24-3.57,0-9.85,1.15C641.75,29.27,439.44,21,371,20.44,126.25,18.5,4.64,56.17,2.42,102.77l0,0c-.76,28.11,140.56,61,272.87,60,153.1-1.24,272.84-16.52,276.64-44.63h0c1.27-11.71-23.1-13-21.42-28.58,1-9.22,8.45-15.11,18.83-15.11a20.75,20.75,0,0,1,12.2,4l-1,9.22c-4.32-4.57-8.83-5.89-12.65-5.89-5.24,0-9.27,2.73-9.7,6.73-1.18,10.88,23.24,10.71,21.4,28.74Z" transform="translate(0.3 -0.41)" style="fill:#F3590C"/><path d="M631.82,131.84l4.3-24.5,1.33-7.31L642,75.15l8.18,0-10.3,56.65" transform="translate(0.3 -0.41)" style="fill:#F3590C"/></svg>
