<svg width="25" height="25" viewBox="0 0 25 25" fill="none" xmlns="http://www.w3.org/2000/svg">
<g clip-path="url(#clip0)">
<path d="M24.9442 17.177C24.7708 16.545 24.2409 16.0747 23.5927 15.9775V6.47764H24.4206C24.6491 6.47764 24.8345 6.29231 24.8345 6.06373V1.92465C24.8345 1.69587 24.6491 1.51074 24.4206 1.51074H6.20862C5.98004 1.51074 5.79471 1.69587 5.79471 1.92465V6.06373C5.79471 6.29231 5.98004 6.47764 6.20862 6.47764H7.03643V14.7558H6.62252C5.59523 14.7534 4.58896 15.0478 3.72517 15.6038V13.5141C3.72517 13.2853 3.53984 13.1002 3.31126 13.1002H0.413908C0.185329 13.1002 0 13.2853 0 13.5141V23.0339C0 23.2625 0.185329 23.4479 0.413908 23.4479H3.31126C3.53984 23.4479 3.72517 23.2625 3.72517 23.0339V20.9444C4.58916 21.5 5.59523 21.7944 6.62252 21.7922H13.4189C13.8898 21.7914 14.3584 21.7296 14.8134 21.6083L23.7748 19.2077C24.6566 18.9674 25.1791 18.0604 24.9442 17.177ZM6.62252 2.33856H24.0067V5.64982H6.62252V2.33856ZM7.86425 6.47764H22.7649V16.0486L17.9611 17.3369C17.7633 16.8651 17.3597 16.5109 16.8663 16.3757L11.2893 14.8799C10.9752 14.7972 10.6519 14.7554 10.3271 14.7558H7.86425V6.47764ZM2.89735 22.62H0.827816V13.928H2.89735V22.62ZM23.56 18.408L14.6002 20.8086C14.2147 20.9115 13.8178 20.9638 13.4189 20.9644H6.62252C5.63707 20.9666 4.67768 20.6469 3.89069 20.0537L3.72517 19.9296V16.6184L3.89069 16.4941C4.67768 15.9009 5.63707 15.581 6.62252 15.5836H10.3271C10.5799 15.5834 10.8319 15.6161 11.0767 15.6808L16.6519 17.1754C16.9813 17.2661 17.2224 17.5485 17.26 17.8882C17.2645 17.9052 17.2699 17.9219 17.2766 17.9383C17.2718 17.9561 17.2681 17.9741 17.2657 17.9925C17.2661 18.0598 17.257 18.1269 17.2384 18.1916C17.141 18.5523 16.8142 18.8031 16.4405 18.8037C16.3675 18.8043 16.2952 18.795 16.2249 18.7764L12.7066 17.833C12.5623 17.7902 12.4061 17.829 12.2986 17.9345C12.1913 18.04 12.1494 18.1954 12.1897 18.3405C12.2299 18.4854 12.3457 18.5974 12.4922 18.6323L16.0104 19.5762C16.1509 19.6131 16.2958 19.6317 16.4413 19.6315C17.1855 19.6311 17.8376 19.1334 18.0343 18.4155C18.0573 18.3324 18.0729 18.2475 18.0812 18.1618L23.1271 16.8088C23.1631 16.7997 23.2021 16.7904 23.2389 16.7843C23.6509 16.7312 24.0384 16.9917 24.1449 17.393C24.1635 17.463 24.1728 17.5351 24.1722 17.6075C24.1728 17.9822 23.9218 18.3104 23.56 18.408Z" fill="#00B2A6"/>
<path d="M13.2455 8.13324H17.3845C17.6131 8.13324 17.7984 7.94791 17.7984 7.71933C17.7984 7.49055 17.6131 7.30542 17.3845 7.30542H13.2455C13.0169 7.30542 12.8315 7.49055 12.8315 7.71933C12.8315 7.94791 13.0169 8.13324 13.2455 8.13324Z" fill="#00B2A6"/>
</g>
<defs>
<clipPath id="clip0">
<rect width="25" height="25" fill="white"/>
</clipPath>
</defs>
</svg>
