<svg width="22" height="25" viewBox="0 0 22 25" fill="none" xmlns="http://www.w3.org/2000/svg">
<path d="M19.5556 2.5H14.4467C13.9333 1.05 12.5889 0 11 0C9.41111 0 8.06667 1.05 7.55333 2.5H2.44444C1.1 2.5 0 3.625 0 5V22.5C0 23.875 1.1 25 2.44444 25H19.5556C20.9 25 22 23.875 22 22.5V5C22 3.625 20.9 2.5 19.5556 2.5ZM11 2.5C11.6722 2.5 12.2222 3.0625 12.2222 3.75C12.2222 4.4375 11.6722 5 11 5C10.3278 5 9.77778 4.4375 9.77778 3.75C9.77778 3.0625 10.3278 2.5 11 2.5ZM13.4444 20H4.88889V17.5H13.4444V20ZM17.1111 15H4.88889V12.5H17.1111V15ZM17.1111 10H4.88889V7.5H17.1111V10Z" fill="white"/>
</svg>
