<svg width="22" height="28" viewBox="0 0 22 28" fill="none" xmlns="http://www.w3.org/2000/svg">
<path d="M10.7445 10.7571C10.4033 10.4158 9.84853 10.4141 9.50553 10.7553L6.62503 13.6376L5.49453 12.5053C5.15328 12.1641 4.59853 12.1641 4.25728 12.5053C3.91603 12.8466 3.91603 13.4013 4.25728 13.7426L6.00728 15.4926C6.17703 15.6641 6.40103 15.7498 6.62503 15.7498C6.84903 15.7498 7.07303 15.6641 7.24453 15.4943L10.7445 11.9943C11.0858 11.6531 11.0858 11.0983 10.7445 10.7571Z" fill="white"/>
<path d="M10.7445 17.7571C10.4033 17.4158 9.84853 17.4141 9.50553 17.7553L6.62503 20.6376L5.49453 19.5071C5.15328 19.1658 4.59853 19.1658 4.25728 19.5071C3.91603 19.8483 3.91603 20.4031 4.25728 20.7443L6.00728 22.4943C6.17703 22.6641 6.40103 22.7498 6.62503 22.7498C6.84903 22.7498 7.07303 22.6641 7.24453 22.4943L10.7445 18.9943C11.0858 18.6531 11.0858 18.0983 10.7445 17.7571Z" fill="white"/>
<path d="M17.125 12.2498H13.625C13.142 12.2498 12.75 12.6418 12.75 13.1248C12.75 13.6078 13.142 13.9998 13.625 13.9998H17.125C17.608 13.9998 18 13.6078 18 13.1248C18 12.6418 17.608 12.2498 17.125 12.2498Z" fill="white"/>
<path d="M17.125 19.2498H13.625C13.142 19.2498 12.75 19.6418 12.75 20.1248C12.75 20.6078 13.142 20.9998 13.625 20.9998H17.125C17.608 20.9998 18 20.6078 18 20.1248C18 19.6418 17.608 19.2498 17.125 19.2498Z" fill="white"/>
<path d="M19.75 3.49976H16.25V2.62476C16.25 2.14176 15.858 1.74976 15.375 1.74976H13.4762C13.114 0.731256 12.141 -0.000244141 11 -0.000244141C9.859 -0.000244141 8.886 0.731256 8.52375 1.74976H6.625C6.142 1.74976 5.75 2.14176 5.75 2.62476V3.49976H2.25C1.28575 3.49976 0.5 4.28551 0.5 5.24976V26.2498C0.5 27.214 1.28575 27.9998 2.25 27.9998H19.75C20.7143 27.9998 21.5 27.214 21.5 26.2498V5.24976C21.5 4.28551 20.7143 3.49976 19.75 3.49976ZM7.5 3.49976H9.25C9.733 3.49976 10.125 3.10776 10.125 2.62476C10.125 2.14176 10.517 1.74976 11 1.74976C11.483 1.74976 11.875 2.14176 11.875 2.62476C11.875 3.10776 12.267 3.49976 12.75 3.49976H14.5V5.24976H7.5V3.49976ZM19.75 26.2498H2.25V5.24976H5.75V6.12476C5.75 6.60776 6.142 6.99976 6.625 6.99976H15.375C15.858 6.99976 16.25 6.60776 16.25 6.12476V5.24976H19.75V26.2498Z" fill="white"/>
</svg>
