<svg width="17" height="18" viewBox="0 0 17 18" fill="none" xmlns="http://www.w3.org/2000/svg">
<path d="M16.853 16.1366L12.7208 12.0044C13.8292 10.7301 14.5003 9.06742 14.5003 7.25017C14.5003 3.24994 11.2466 0 7.25017 0C3.24994 0 0 3.25372 0 7.25017C0 11.2466 3.25372 14.5003 7.25017 14.5003C9.06742 14.5003 10.7301 13.8292 12.0044 12.7208L16.1366 16.853C16.2346 16.951 16.3666 17.0038 16.4948 17.0038C16.623 17.0038 16.7549 16.9548 16.853 16.853C17.049 16.6569 17.049 16.3327 16.853 16.1366ZM1.01419 7.25017C1.01419 3.81171 3.81171 1.01796 7.2464 1.01796C10.6849 1.01796 13.4786 3.81548 13.4786 7.25017C13.4786 10.6849 10.6849 13.4861 7.2464 13.4861C3.81171 13.4861 1.01419 10.6886 1.01419 7.25017Z" fill="white"/>
</svg>
