<svg width="27" height="27" viewBox="0 0 27 27" fill="none" xmlns="http://www.w3.org/2000/svg">
<path d="M6.29967 17.7749C4.81061 17.7749 3.59967 18.9858 3.59967 20.4749C3.59967 21.964 4.81061 23.1749 6.29967 23.1749C7.78873 23.1749 8.99967 21.964 8.99967 20.4749C8.99967 18.9858 7.78868 17.7749 6.29967 17.7749ZM6.29967 22.2749C5.30695 22.2749 4.49969 21.4676 4.49969 20.4749C4.49969 19.4822 5.307 18.6749 6.29967 18.6749C7.29234 18.6749 8.09965 19.4822 8.09965 20.4749C8.09965 21.4676 7.29234 22.2749 6.29967 22.2749Z" fill="#00B2A6"/>
<path d="M21.6001 17.7749C20.1111 17.7749 18.9001 18.9858 18.9001 20.4749C18.9001 21.964 20.1111 23.1749 21.6001 23.1749C23.0892 23.1749 24.3001 21.964 24.3001 20.4749C24.3001 18.9858 23.0892 17.7749 21.6001 17.7749ZM21.6001 22.2749C20.6074 22.2749 19.8002 21.4676 19.8002 20.4749C19.8002 19.4822 20.6075 18.6749 21.6001 18.6749C22.5929 18.6749 23.4001 19.4822 23.4001 20.4749C23.4001 21.4676 22.5929 22.2749 21.6001 22.2749Z" fill="#00B2A6"/>
<path d="M26.9282 15.2815L22.8782 8.98146C22.7954 8.85274 22.6527 8.7749 22.4997 8.7749H17.5497C17.3009 8.7749 17.0997 8.97651 17.0997 9.22489V20.4749C17.0997 20.7237 17.3009 20.9249 17.5497 20.9249H19.3497V20.0248H17.9997V9.67492H22.254L26.0997 15.6572V20.0249H23.8497V20.9249H26.5497C26.7985 20.9249 26.9997 20.7238 26.9997 20.4749V15.5249C26.9997 15.4389 26.975 15.3539 26.9282 15.2815Z" fill="#00B2A6"/>
<path d="M19.8004 14.6249V11.475H23.4004V10.575H19.3504C19.1016 10.575 18.9005 10.7766 18.9005 11.0249V15.0749C18.9005 15.3238 19.1016 15.5249 19.3504 15.5249H26.1004V14.6249H19.8004V14.6249Z" fill="#00B2A6"/>
<path d="M17.55 5.625H0.449982C0.201604 5.625 0 5.8266 0 6.07498V20.475C0 20.7239 0.201604 20.925 0.449982 20.925H4.05V20.025H0.900018V6.52496H17.1V20.025H8.54998V20.925H17.55C17.7989 20.925 18 20.7239 18 20.475V6.07498C18 5.8266 17.7989 5.625 17.55 5.625Z" fill="#00B2A6"/>
<path d="M3.15038 18.2251H0.450378V19.1251H3.15038V18.2251Z" fill="#00B2A6"/>
<path d="M17.1 18.2251H9.44995V19.1251H17.1V18.2251Z" fill="#00B2A6"/>
<path d="M26.5502 18.2251H24.7502V19.1251H26.5502V18.2251Z" fill="#00B2A6"/>
<path d="M17.5502 7.42505H1.80023V8.32507H17.5502V7.42505Z" fill="#00B2A6"/>
<path d="M6.75005 20.0249H5.85004V20.9249H6.75005V20.0249Z" fill="#00B2A6"/>
<path d="M22.05 20.0249H21.15V20.9249H22.05V20.0249Z" fill="#00B2A6"/>
<path d="M8.10025 3.82495H1.80023V4.72497H8.10025V3.82495Z" fill="#00B2A6"/>
<path d="M0.900018 3.82495H0V4.72497H0.900018V3.82495Z" fill="#00B2A6"/>
</svg>
