<svg width="23" height="27" viewBox="0 0 23 27" fill="none" xmlns="http://www.w3.org/2000/svg">
<path d="M15.8925 15.8406L15.8235 15.8094C15.6586 15.7344 15.4926 15.6637 15.3234 15.5975C15.1388 15.5235 14.9515 15.4551 14.7614 15.391C14.6114 15.3417 14.4602 15.2957 14.3074 15.2508C14.0746 15.1835 13.8396 15.1226 13.5976 15.0689C13.5154 15.052 13.4317 15.0355 13.3484 15.0207L13.2915 15.0097C13.1485 14.9817 13.005 14.9571 12.8599 14.9357L12.8183 14.9292C12.8167 14.9292 12.8156 14.9281 12.814 14.9281L12.7724 14.9226C12.6519 14.9045 12.532 14.8876 12.407 14.8733L11.982 14.8383C11.4596 14.8038 10.9211 14.8049 10.4047 14.8427L10.2541 14.8553L10.184 14.8607L10.0082 14.8766C9.84658 14.8935 9.68611 14.916 9.52564 14.9418L9.47851 14.9483C9.369 14.9664 9.25941 14.9867 9.15152 15.007C9.03162 15.0284 8.91324 15.0519 8.79496 15.0776C8.56605 15.1291 8.33869 15.1877 8.11856 15.2518C7.94326 15.3022 7.77026 15.3575 7.60758 15.4134L7.49474 15.454C7.14968 15.5761 6.80684 15.7163 6.47491 15.8702L6.38619 15.9124L6.38457 15.9146C2.50302 17.7724 0 21.7306 0 26.0257C0 26.1243 0.00656206 26.2212 0.0126127 26.3187L0.041673 27H22.3855L22.4155 26.3263C22.4221 26.2266 22.4282 26.1275 22.4282 26.0257C22.4282 21.6621 19.8644 17.6688 15.8925 15.8406ZM1.09577 25.9046C1.1429 22.0483 3.42298 18.5107 6.89811 16.8812L7.00984 16.8374L7.02296 16.8248C7.29516 16.7005 7.57613 16.5871 7.86094 16.4869L7.95127 16.4546C8.10629 16.4009 8.26071 16.3517 8.42118 16.3062C8.62111 16.2475 8.82487 16.1949 9.02914 16.149C9.13482 16.1266 9.24058 16.1052 9.34957 16.0849C9.43607 16.0691 9.52206 16.0526 9.60916 16.0389L9.65185 16.0312C9.80849 16.0066 9.96572 15.9841 10.1224 15.9672L10.4805 15.936C10.9493 15.9014 11.3979 15.8965 11.9412 15.936L12.2895 15.965C12.3755 15.9749 12.4615 15.9864 12.5661 16.0012L12.6916 16.0192C12.8225 16.0384 12.9534 16.0608 13.0848 16.0855L13.1462 16.097C13.2201 16.1108 13.2935 16.125 13.363 16.1397C13.5788 16.1869 13.7908 16.2427 14.0011 16.3035C14.1402 16.3441 14.2782 16.3857 14.413 16.4306C14.5838 16.4875 14.7526 16.5495 14.9196 16.6157C15.0801 16.6787 15.2383 16.7461 15.395 16.8178L15.4223 16.8304C18.9764 18.461 21.2843 22.0101 21.3314 25.9036H1.09577V25.9046ZM8.50674 13.4307C8.58889 13.4652 8.67377 13.4953 8.75865 13.5255L8.93668 13.5901C9.00511 13.6163 9.07414 13.6422 9.14428 13.6641C9.79715 13.8694 10.4801 13.9751 11.1746 13.9807L11.2299 13.9818C11.4682 13.9818 11.707 13.9692 11.9359 13.9456C12.0147 13.938 12.0914 13.9253 12.1686 13.9122L12.3401 13.8865C12.4364 13.8739 12.5328 13.8596 12.6336 13.84C12.7027 13.8257 12.7695 13.8077 12.8363 13.7896L13.0236 13.742C13.1162 13.7195 13.2087 13.697 13.3002 13.6686C13.3572 13.6505 13.4131 13.6297 13.4684 13.6088L13.619 13.5546C13.7263 13.5174 13.8347 13.479 13.9432 13.4336C13.9854 13.4156 14.0265 13.3959 14.067 13.3761L14.1157 13.352C14.2642 13.2857 14.412 13.2178 14.5588 13.1389L14.6541 13.082C14.8184 12.9889 14.9822 12.8925 15.1481 12.7791C15.2341 12.7211 15.3162 12.6559 15.3973 12.5913L15.6777 12.3733C17.2902 11.0386 18.2169 9.07995 18.2169 7.04854L18.2202 6.99051C18.2202 3.1358 15.0841 0.000183105 11.2294 0.000183105C7.54997 0.000183105 4.48884 2.87724 4.26044 6.55017L4.25439 6.6411C4.24562 6.75666 4.23854 6.87222 4.23854 6.99051C4.23743 9.80603 5.91287 12.3337 8.50674 13.4307ZM5.3465 6.71703L5.35306 6.61843C5.54583 3.52117 8.12657 1.09544 11.2288 1.09544C14.48 1.09544 17.1242 3.73976 17.127 6.94048L17.1237 6.998C17.1215 8.75176 16.3394 10.4031 14.9729 11.5374L14.7127 11.7357C14.6547 11.7828 14.596 11.8299 14.5232 11.8803C14.3917 11.9696 14.2526 12.0501 14.1113 12.1301L14.033 12.1777C13.9147 12.2413 13.7903 12.2976 13.6611 12.3552L13.5159 12.4253C13.4327 12.4598 13.3451 12.4899 13.2585 12.5201L13.0777 12.5853C13.0427 12.5984 13.0071 12.6126 12.9726 12.623C12.9052 12.6438 12.8362 12.6597 12.7677 12.6767L12.5492 12.7326C12.5021 12.7452 12.4555 12.7583 12.4139 12.7671C12.3411 12.7813 12.2666 12.7912 12.1927 12.8016L11.9846 12.8328C11.9342 12.8416 11.8838 12.8504 11.8274 12.8558C11.645 12.875 11.4615 12.8854 11.2753 12.887L11.2238 12.8865H11.2227C10.623 12.886 10.0342 12.7967 9.47118 12.6204C9.42244 12.605 9.3748 12.5858 9.32716 12.5678L9.12127 12.4928C9.05718 12.4703 8.99369 12.4484 8.93233 12.4227C6.74591 11.4979 5.33278 9.3651 5.33278 6.99085C5.33278 6.8983 5.33994 6.80737 5.3465 6.71703Z" fill="#303030"/>
</svg>
