<svg width="21" height="21" viewBox="0 0 21 21" fill="none" xmlns="http://www.w3.org/2000/svg">
<path d="M0.409231 5.80281C0.281443 5.80281 0.181129 5.84534 0.108606 5.93067C0.0362186 6.016 -0.000312805 6.12254 1.90735e-06 6.25004C1.90735e-06 6.58226 0.0981178 7.03396 0.29417 7.6048C0.69511 8.74659 1.39708 9.67323 2.39931 10.3847C3.40172 11.096 4.50444 11.4521 5.70748 11.4521C7.28573 11.4521 8.63583 10.8917 9.75756 9.77132C10.8794 8.65088 11.4404 7.30239 11.4404 5.72604C11.4404 4.14973 10.8797 2.80119 9.75756 1.68084C8.63583 0.5604 7.28573 0 5.70748 0C5.21278 0 4.69436 0.0703298 4.15259 0.2109C3.61113 0.35147 3.15251 0.549611 2.77698 0.805323C2.6405 0.899066 2.57223 1.01833 2.57223 1.16311C2.57223 1.30797 2.6405 1.42728 2.77698 1.52098L6.52643 3.68119V6.54425L4.05644 7.9119C4.01391 7.88629 3.67693 7.67969 3.04543 7.29187C2.41423 6.90409 1.83607 6.55907 1.31146 6.25667C0.786592 5.95417 0.485924 5.80281 0.409231 5.80281Z" fill="white"/>
<path fill-rule="evenodd" clip-rule="evenodd" d="M20.5137 16.8332L11.7989 8.12916C11.4661 8.9642 10.9777 9.70341 10.3337 10.3468C9.68934 10.9901 8.94936 11.4779 8.11356 11.8103L16.8409 20.5272C17.1566 20.8425 17.5405 21 17.9927 21C18.4362 21 18.8244 20.8425 19.1573 20.5272L20.5137 19.1468C20.8379 18.8398 21 18.4565 21 17.9963C21 17.5447 20.8378 17.1569 20.5137 16.8332ZM17.1737 17.9963C16.9519 17.9963 16.76 17.9153 16.5977 17.7535C16.4357 17.5915 16.3546 17.3998 16.3546 17.1783C16.3546 16.957 16.4357 16.765 16.5977 16.6029C16.7598 16.4413 16.9518 16.3602 17.1737 16.3602C17.3956 16.3602 17.5874 16.4413 17.7495 16.6029C17.9116 16.765 17.9927 16.957 17.9927 17.1783C17.9927 17.3999 17.9116 17.5915 17.7495 17.7535C17.5874 17.9153 17.3955 17.9963 17.1737 17.9963Z" fill="white"/>
</svg>
